<?xml version="1.0" encoding="iso-8859-1"?>
<!-- Uploaded to: SVG Repo, www.svgrepo.com, Generator: SVG Repo Mixer Tools -->
<svg height="800px" width="800px" version="1.1" id="Layer_1" xmlns="http://www.w3.org/2000/svg" xmlns:xlink="http://www.w3.org/1999/xlink" 
	 viewBox="0 0 512 512" xml:space="preserve">
<g>
	<path style="fill:#ECF0F1;" d="M308.966,282.483c-16.066,7.645-33.986,12.05-52.966,12.05s-36.899-4.405-52.966-12.05v56.188
		h105.931V282.483z"/>
	<polygon style="fill:#AAB7BA;" points="291.31,382.81 220.69,382.81 203.034,338.672 308.966,338.672 	"/>
	<path style="fill:#F3D55B;" d="M344.276,211.862c0,48.746-39.53,88.276-88.276,88.276s-88.276-39.53-88.276-88.276
		s39.53-88.276,88.276-88.276S344.276,163.116,344.276,211.862"/>
	<g>
		<path style="fill:#F9EBB0;" d="M273.655,211.862h-35.31c-4.882,0-8.828-3.946-8.828-8.828s3.946-8.828,8.828-8.828h35.31
			c4.882,0,8.828,3.946,8.828,8.828S278.537,211.862,273.655,211.862"/>
		<path style="fill:#F9EBB0;" d="M273.655,247.172h-35.31c-4.882,0-8.828-3.946-8.828-8.828c0-4.882,3.946-8.828,8.828-8.828h35.31
			c4.882,0,8.828,3.946,8.828,8.828C282.483,243.226,278.537,247.172,273.655,247.172"/>
	</g>
	<g>
		<path style="fill:#F0C419;" d="M20.069,476.69h85.866L123.59,512l15.236-35.31c11.087,0,20.074-9.587,20.074-21.407v-98.428
			c0-11.82-8.986-21.407-20.074-21.407H20.069c-11.087,0-20.065,9.587-20.065,21.407v98.428
			C0.004,467.103,8.981,476.69,20.069,476.69"/>
		<path style="fill:#F0C419;" d="M483.104,141.241h-85.866l-17.655,35.31l-15.236-35.31c-11.087,0-20.074-9.587-20.074-21.407
			V21.407C344.272,9.587,353.259,0,364.346,0h118.758c11.087,0,20.065,9.587,20.065,21.407v98.428
			C503.169,131.655,494.191,141.241,483.104,141.241"/>
	</g>
	<g>
		<path style="fill:#894B9D;" d="M491.931,476.69h-85.866L388.41,512l-15.236-35.31c-11.087,0-20.074-9.587-20.074-21.407v-98.428
			c0-11.82,8.986-21.407,20.074-21.407h118.758c11.087,0,20.065,9.587,20.065,21.407v98.428
			C511.996,467.103,503.019,476.69,491.931,476.69"/>
		<path style="fill:#894B9D;" d="M20.069,141.241h85.866l17.655,35.31l15.236-35.31c11.087,0,20.074-9.587,20.074-21.407V21.407
			C158.9,9.587,149.914,0,138.826,0H20.069C8.981,0,0.004,9.587,0.004,21.407v98.428C0.004,131.655,8.981,141.241,20.069,141.241"/>
	</g>
	<path style="fill:#F9EBB0;" d="M256,167.724c-4.882,0-8.828,3.946-8.828,8.828v123.136c2.904,0.291,5.844,0.45,8.828,0.45
		c2.984,0,5.923-0.159,8.828-0.45V176.552C264.828,171.67,260.882,167.724,256,167.724"/>
</g>
</svg>