<?xml version="1.0" encoding="iso-8859-1"?>
<!-- Uploaded to: SVG Repo, www.svgrepo.com, Generator: SVG Repo Mixer Tools -->
<svg height="800px" width="800px" version="1.1" id="Layer_1" xmlns="http://www.w3.org/2000/svg" xmlns:xlink="http://www.w3.org/1999/xlink" 
	 viewBox="0 0 512 512" xml:space="preserve">
<path style="fill:#AB91EA;" d="M0,256.006C0,397.402,114.606,512.004,255.996,512C397.394,512.004,512,397.402,512,256.006
	C512.009,114.61,397.394,0,255.996,0C114.606,0,0,114.614,0,256.006z"/>
<path style="fill:#947ADB;" d="M511.69,268.25c-0.076-0.076-0.15-0.151-0.226-0.226c-0.497-0.502-131.003-131.008-131.505-131.505
	c-0.494-0.499-0.988-0.993-1.488-1.488C347.219,103.394,303.875,83.729,256,83.729c-94.989,0-172.27,77.282-172.27,172.271
	c0,47.874,19.663,91.216,51.297,122.467c0.495,0.502,132.493,132.498,132.993,132.993c0.076,0.078,0.155,0.154,0.23,0.23
	C399.896,505.49,505.49,399.892,511.69,268.25z"/>
<g>
	<path style="fill:#F4F6F9;" d="M256,83.73c-94.989,0-172.27,77.282-172.27,172.27S161.011,428.271,256,428.271
		S428.27,350.989,428.27,256S350.989,83.73,256,83.73z M256,413.915c-87.074,0-157.915-70.841-157.915-157.915
		S168.926,98.085,256,98.085S413.915,168.926,413.915,256S343.074,413.915,256,413.915z"/>
	<path style="fill:#F4F6F9;" d="M355.937,238.901c-0.364-0.879-0.889-1.673-1.551-2.334l-50.243-50.243
		c-2.804-2.804-7.346-2.804-10.15,0s-2.804,7.346,0,10.15l37.993,37.993H203.806c-14.237,0-25.094,4.724-32.266,14.044
		c-5.874,7.63-8.853,17.9-8.853,30.516c0,24.345,13.63,63.108,29.78,63.108c3.964,0,7.178-3.211,7.178-7.178
		c0-3.687-2.775-6.722-6.348-7.129c-6.116-3.835-20.746-36.471-15.014-60.319c3.025-12.575,11.373-18.688,25.522-18.688h128.179
		l-37.993,37.993c-2.804,2.804-2.804,7.346,0,10.15c1.402,1.402,3.238,2.102,5.075,2.102s3.674-0.701,5.075-2.102l50.243-50.243
		c0.662-0.661,1.187-1.456,1.551-2.334C356.662,242.633,356.662,240.656,355.937,238.901z"/>
</g>
</svg>